<svg version="1.1" xmlns="http://www.w3.org/2000/svg" xmlns:xlink="http://www.w3.org/1999/xlink" viewBox="0 0 65.047 65.047" fill="white">
	<path d="M58.376,0H6.672C2.993,0,0,2.992,0,6.671v51.704c0,3.68,2.993,6.672,6.672,6.672h51.703c3.68,0,6.672-2.992,6.672-6.672
		V6.671C65.046,2.992,62.055,0,58.376,0z M61.71,58.375c0,1.839-1.496,3.336-3.334,3.336H6.672c-1.84,0-3.336-1.497-3.336-3.336
		V6.671c0-1.838,1.496-3.335,3.336-3.335h51.705c1.838,0,3.334,1.497,3.334,3.335L61.71,58.375L61.71,58.375z M46.9,24.411
		L30.704,40.607l0.025,0.024l-3.539,3.54l-0.026-0.025l-0.021,0.021l-3.539-3.539l0.021-0.021l-7.148-7.146l3.539-3.54l7.148,7.147
		l16.197-16.196L46.9,24.411z"/>
</svg>
