<svg version="1.1" xmlns="http://www.w3.org/2000/svg" xmlns:xlink="http://www.w3.org/1999/xlink" viewBox="0 0 65.047 65.047" xml:space="preserve" fill="white">
<path d="M58.375,65.047H6.672C2.994,65.047,0,62.055,0,58.375V6.672C0,2.993,2.994,0,6.672,0h51.703
			c3.68,0,6.671,2.993,6.671,6.672v51.703C65.046,62.055,62.055,65.047,58.375,65.047z M6.672,3.336
			c-1.84,0-3.336,1.496-3.336,3.336v51.703c0,1.84,1.496,3.336,3.336,3.336h51.703c1.84,0,3.336-1.496,3.336-3.336V6.672
			c0-1.84-1.496-3.336-3.336-3.336H6.672z"/>
		<rect x="17.375" y="30.021" width="30.299" height="5.004"/>
		<rect x="30.021" y="17.374" width="5.004" height="30.299"/>
</svg>
