<?xml version="1.0" encoding="UTF-8" standalone="no"?>
<svg version="1.1" xmlns="http://www.w3.org/2000/svg" viewBox="0 0 69.423729 69.423729" id="svg22" fill="white">
  <path
     d="M 5.9661017,69.330982 C 3.4293104,68.89939 1.2182607,66.966408 0.32466632,64.399028 0.07567543,63.683653 0.06779661,62.773077 0.06779661,34.711864 0.06779661,6.6506528 0.07567543,5.7400753 0.32466632,5.0247012 1.097559,2.8041083 2.8041083,1.097559 5.0247012,0.32466632 5.7400753,0.07567543 6.6506528,0.06779661 34.711864,0.06779661 c 28.061213,0 28.971789,0.0078788 29.687164,0.25686971 2.249121,0.78282218 3.917212,2.45091358 4.700035,4.70003488 0.24899,0.7153741 0.256869,1.6259516 0.256869,29.6871628 0,28.061213 -0.0079,28.971789 -0.256869,29.687164 -0.769752,2.211569 -2.353223,3.819321 -4.624487,4.695398 -0.66145,0.255136 -1.378219,0.261905 -29.423728,0.277867 -15.81017,0.009 -28.8983056,-0.0096 -29.0847463,-0.04131 z M 63.728814,65.546421 c 0.748267,-0.348387 1.662419,-1.318955 1.914265,-2.032406 C 65.924265,62.717454 65.923027,6.7028922 65.641859,5.9058566 65.375513,5.151129 64.375551,4.130602 63.614572,3.8369314 63.014035,3.6051774 61.596007,3.5932203 34.711864,3.5932203 10.906503,3.5932203 6.3561955,3.6230285 5.9058566,3.7819226 5.151129,4.0482149 4.130602,5.0481774 3.8369314,5.8091572 3.6051774,6.4096943 3.5932203,7.8277223 3.5932203,34.711864 c 0,23.713506 0.030216,28.356786 0.1874295,28.802151 0.2126634,0.60245 1.1044232,1.631165 1.6655377,1.921328 0.2065294,0.106801 0.6063044,0.248889 0.8883891,0.315754 0.2953977,0.07002 12.4435724,0.112632 28.6484744,0.100491 l 28.135593,-0.02108 z M 24.286715,40.62573 c -0.996167,-0.998222 -1.78854,-1.875239 -1.760829,-1.948929 0.02771,-0.07369 2.893513,-3.009505 6.368446,-6.524035 4.706259,-4.759886 6.397919,-6.390054 6.631092,-6.390054 0.233179,0 1.924701,1.630148 6.631091,6.390499 3.474933,3.514774 6.334617,6.458842 6.354853,6.542373 0.02024,0.08353 -0.787627,0.974144 -1.79525,1.97914 l -1.832041,1.827267 -4.679327,-4.672087 -4.679326,-4.672088 -4.648623,4.641432 c -2.556743,2.552786 -4.677929,4.64143 -4.713749,4.64143 -0.03582,0 -0.880171,-0.816727 -1.876337,-1.814948 z"
     />
</svg>
