<svg version="1.1" xmlns="http://www.w3.org/2000/svg" xmlns:xlink="http://www.w3.org/1999/xlink" viewBox="0 0 65.047 65.047" fill="white">
		<path d="M58.375,0H6.672C2.993,0,0,2.993,0,6.672v51.703c0,3.68,2.993,6.672,6.672,6.672h51.703c3.682,0,6.672-2.992,6.672-6.672
			V6.672C65.047,2.993,62.057,0,58.375,0z M61.711,58.375c0,1.84-1.497,3.336-3.336,3.336H6.672c-1.839,0-3.336-1.496-3.336-3.336
			V6.672c0-1.84,1.497-3.336,3.336-3.336h51.703c1.839,0,3.336,1.496,3.336,3.336V58.375z"/>
		<path d="M32.523,16.536c-8.816,0-15.987,7.172-15.987,15.988s7.171,15.988,15.987,15.988c8.817,0,15.989-7.173,15.989-15.988
			C48.512,23.708,41.339,16.536,32.523,16.536z M32.523,21.539c2.124,0,4.101,0.616,5.784,1.663L23.202,38.307
			c-1.047-1.683-1.663-3.66-1.663-5.783C21.539,26.467,26.466,21.539,32.523,21.539z M32.523,43.508
			c-2.123,0-4.101-0.615-5.782-1.663l15.104-15.104c1.047,1.682,1.661,3.66,1.661,5.783C43.507,38.58,38.581,43.508,32.523,43.508z"/>
</svg>
