<svg xmlns:svg="http://www.w3.org/2000/svg" xmlns="http://www.w3.org/2000/svg" viewBox="0 0 69.423729 69.423729" version="1.1" fill="white">
<path d="M 5.9661017,69.330982 C 3.4507367,68.903036 1.2107132,66.944723 0.32466632,64.399028 0.07567543,63.683653 0.06779661,62.773077 0.06779661,34.711864 0.06779661,6.6506528 0.07567543,5.7400753 0.32466632,5.0247012 1.097559,2.8041083 2.8041083,1.097559 5.0247012,0.32466632 5.7400753,0.07567543 6.6506528,0.06779661 34.711864,0.06779661 c 28.061213,0 28.971789,0.0078788 29.687164,0.25686971 2.220593,0.77289268 3.927142,2.47944198 4.700035,4.70003488 0.24899,0.7153741 0.256869,1.6259516 0.256869,29.6871628 0,28.061213 -0.0079,28.971789 -0.256869,29.687164 -0.759449,2.181967 -2.383623,3.831047 -4.624487,4.695398 -0.66145,0.255136 -1.378219,0.261905 -29.423728,0.277867 -15.81017,0.009 -28.8983056,-0.0096 -29.0847463,-0.04131 z M 63.730335,65.54737 c 0.779226,-0.360686 1.456349,-1.037809 1.817035,-1.817035 l 0.283139,-0.611691 V 34.711864 6.3050848 L 65.54737,5.6933932 C 65.186684,4.9141677 64.509561,4.2370457 63.730335,3.8763591 L 63.118644,3.5932203 H 34.711864 6.3050848 L 5.6933932,3.8763591 C 4.9141677,4.2370457 4.2370457,4.9141677 3.8763591,5.6933932 L 3.5932203,6.3050848 3.5572479,34.305085 c -0.024976,19.440469 0.00824,28.213726 0.1086675,28.699144 0.2756033,1.332181 1.233795,2.350525 2.5455498,2.705356 0.5056673,0.136784 6.4014328,0.1668 28.7715858,0.14648 l 28.135593,-0.02556 z M 25.276109,52.082583 c -0.489217,-0.29832 -0.982098,-0.88824 -1.078687,-1.291055 -0.227221,-0.947617 -3.451659,-21.795513 -3.451659,-22.317024 0,-1.029631 0.756717,-1.923709 1.841002,-2.175186 0.69787,-0.161855 23.552329,-0.161855 24.250199,0 1.084495,0.251525 1.841002,1.145534 1.841002,2.17562 0,0.714573 -3.314426,21.796329 -3.529829,22.451849 -0.1437,0.437312 -0.668119,1.000585 -1.173121,1.260035 -0.210204,0.107994 -2.906209,0.152013 -9.288136,0.151654 -8.56739,-5.42e-4 -9.01174,-0.01257 -9.410771,-0.255893 z m 3.453807,-3.083354 c 0.402386,-0.281843 0.67821,-0.950849 0.607633,-1.473805 -0.03019,-0.223729 -0.360798,-3.938347 -0.734674,-8.254707 -0.373876,-4.31636 -0.739215,-7.958994 -0.811865,-8.094741 -0.343346,-0.641549 -1.322699,-0.869547 -1.955127,-0.455165 -0.519971,0.3407 -0.622683,0.857228 -0.478424,2.405985 0.07078,0.759923 0.373607,4.218967 0.672944,7.686763 0.299337,3.467797 0.58251,6.606997 0.629272,6.975999 0.152293,1.201748 1.204104,1.816335 2.070241,1.209671 z m 6.595906,0.05912 c 0.753971,-0.343531 0.741975,-0.192838 0.741975,-9.32066 v -8.411375 l -0.392903,-0.439736 c -0.325146,-0.363899 -0.491226,-0.439735 -0.96303,-0.439735 -0.471803,0 -0.637883,0.07584 -0.963029,0.439735 l -0.392903,0.439736 0.0048,8.43854 c 0.0052,9.040762 -0.0067,8.881174 0.688086,9.266265 0.40775,0.225999 0.821391,0.234819 1.276999,0.02723 z m 6.560118,-0.035 c 0.20952,-0.108347 0.451302,-0.367669 0.537293,-0.576271 0.156011,-0.378464 1.508971,-15.203565 1.508971,-16.534596 0,-0.617353 -0.05027,-0.744226 -0.417184,-1.052966 -0.894799,-0.752924 -2.049235,-0.223389 -2.216612,1.016749 -0.04441,0.329074 -0.385928,4.124757 -0.758922,8.434852 -0.477651,5.519463 -0.637875,7.911826 -0.541889,8.091178 0.21272,0.397471 0.819367,0.818049 1.179965,0.818049 0.180087,0 0.498857,-0.08865 0.708378,-0.196995 z M 21.423729,21.99459 c 0,-1.312488 0.71671,-3.015793 1.649601,-3.920374 1.079804,-1.047036 0.40148,-0.98947 11.659166,-0.98947 9.867534,0 10.074406,0.0054 10.637373,0.277932 0.671956,0.32529 1.544032,1.227146 1.943178,2.009538 C 47.670799,20.073467 48,21.330159 48,21.99459 v 0.513885 H 34.711864 21.423729 Z" /></svg>
