<svg xmlns:svg="http://www.w3.org/2000/svg" xmlns="http://www.w3.org/2000/svg" viewBox="0 0 69.423729 69.423729" version="1.1" fill="white">
<path d="M 26.305085,52.387542 C 25.537384,52.259173 25.357812,52.187463 24.954734,51.848296 24.722578,51.652949 24.447923,51.32931 24.344388,51.129094 24.126538,50.707823 20.745763,29.495488 20.745763,28.54989 c 0,-1.064652 0.683216,-1.947278 1.733024,-2.238838 0.694044,-0.192755 23.772111,-0.192755 24.466155,0 1.05123,0.291956 1.733024,1.174167 1.733024,2.242459 0,0.921467 -3.381268,22.155682 -3.592671,22.561821 -0.206007,0.395769 -0.667313,0.837841 -1.153091,1.105013 -0.27636,0.151993 -1.904589,0.189894 -8.81356,0.205156 -4.661017,0.01029 -8.627119,-0.0068 -8.813559,-0.03796 z m 2.307799,-3.371996 c 0.510347,-0.263912 0.675252,-0.586068 0.675252,-1.319173 0,-1.228744 -1.364912,-16.051812 -1.511373,-16.413638 -0.199772,-0.493532 -0.614768,-0.77426 -1.14458,-0.77426 -0.479208,0 -1.104039,0.428405 -1.273003,0.872815 -0.110982,0.291903 1.239108,16.454035 1.422827,17.032882 0.101036,0.318334 0.820205,0.80489 1.190828,0.80566 0.134212,2.71e-4 0.422234,-0.09165 0.640049,-0.204286 z M 35.557182,48.824735 36,48.429132 36.03354,39.977277 c 0.02605,-6.56485 -0.0045,-8.527536 -0.136663,-8.790836 C 35.803264,31 35.498342,30.735653 35.219269,30.599002 c -0.491931,-0.240877 -0.522878,-0.240877 -1.014809,0 -0.279073,0.136651 -0.583995,0.400998 -0.677606,0.587439 -0.132202,0.2633 -0.162714,2.225986 -0.136663,8.790836 l 0.03354,8.451855 0.442818,0.395603 c 0.27847,0.24878 0.5922,0.395604 0.845317,0.395604 0.253118,0 0.566848,-0.146824 0.845318,-0.395604 z m 6.459066,0.05067 c 0.225465,-0.189717 0.442206,-0.449039 0.481649,-0.576271 0.09242,-0.29814 1.434307,-15.662956 1.434307,-16.423091 0,-1.395484 -1.797336,-1.891693 -2.448034,-0.675855 -0.202944,0.379205 -1.628522,16.759579 -1.490076,17.121468 0.329441,0.861135 1.330923,1.135381 2.022154,0.553749 z M 21.514792,22.418747 c -0.14786,-0.147862 -0.101432,-1.012026 0.09353,-1.740781 0.416873,-1.55827 1.369653,-2.830384 2.527274,-3.374316 0.603744,-0.283681 0.714406,-0.286701 10.508475,-0.286701 8.109486,0 9.994957,0.0341 10.433127,0.188703 1.523688,0.537606 3.095653,3.152965 2.902024,4.828246 l -0.04702,0.40678 -13.163175,0.03457 c -7.239746,0.01901 -13.204153,-0.0064 -13.254237,-0.0565 z" /></svg>
