<svg xmlns="http://www.w3.org/2000/svg" viewBox="0 0 64 64">
  <path fill="white" d="M13.259,53.228a7.484,7.484,0,0,1,1.524-.205,0.483,0.483,0,0,1,.586.5,5.418,5.418,0,0,1-.908,2.52l0.732,0.41a4.973,4.973,0,0,1,1.655-1.875,4.588,4.588,0,0,1,2.124-.41,33.327,33.327,0,0,1,4.058.366,34.181,34.181,0,0,0,4.38.366,5,5,0,0,0,2.373-.41,4.422,4.422,0,0,1,1.2-1.758A4.069,4.069,0,0,0,32.1,51.206a2.185,2.185,0,0,1,.322-0.82,10.021,10.021,0,0,0,3.076-4.424q0.586-1.435.586-6.914,0-6.8-2.051-7.324a0.568,0.568,0,0,1-.527-0.41,9.722,9.722,0,0,0-3.355-3.442q-2.74-1.977-6.24-4.087t-4.585-2.959q-0.176,0-.234-0.557V15.113q0-.586.176-0.586L21.022,13a0.633,0.633,0,0,1,.469-0.176h1.846a1.134,1.134,0,0,1,.879.351,4.892,4.892,0,0,1,.7,1.7l0.527-.176a5.223,5.223,0,0,1-.293-1.714,0.685,0.685,0,0,1,1.26-.513L28.7,14.585a1.055,1.055,0,0,1,.205.674,3.708,3.708,0,0,0,.864,1.6,10.717,10.717,0,0,1,1.011,1.48q0.176,0.381.908,3.091a8.909,8.909,0,0,0,1.23,3.179,3.61,3.61,0,0,0,1.04.7q0.542,0.235.894,0.381,0.849,0.439,1.465,3.164l0.176-.059a13.746,13.746,0,0,1-.41-2.227A0.755,0.755,0,0,1,36.14,26.1q2.988-9.961,2.988-14.092a3.527,3.527,0,0,0-.659-1.8,4.872,4.872,0,0,1-.659-1.216A0.65,0.65,0,0,1,37.868,8.7l0.85-2.344L38.22,6l-4.365,4.6a0.722,0.722,0,0,1-.557.264c0.059,0,.088-0.019.088-0.059a5.2,5.2,0,0,0-.967-0.615q-3.252-1.9-3.252-2.754a4.7,4.7,0,0,1,.352-1.758L28.874,5.5a7.063,7.063,0,0,1-.791,1.582,0.946,0.946,0,0,1-.762.352l-2.959-.059a2.667,2.667,0,0,1-.791-0.088Q22.9,7.056,22.692,5.21l-0.908.059a6.206,6.206,0,0,1,.059.967q0,1.7-3.281,1.992-3.34.264-3.662,1.67a0.506,0.506,0,0,1-.176.352L14.167,9.81a4.708,4.708,0,0,0-2.432-1.23,0.451,0.451,0,0,0-.5.352l1.2,2.578a16.129,16.129,0,0,1-1.831,4.746,3.777,3.777,0,0,1-2.5,1.787l0.732,3.486a3.132,3.132,0,0,1,.7-0.059,5.035,5.035,0,0,1,3.193,1.377,7.932,7.932,0,0,0,.5,1.582,2.711,2.711,0,0,1,.293,1.055,0.972,0.972,0,0,1-.351.732,6.072,6.072,0,0,1-1.289.791L12.2,27.769a9.853,9.853,0,0,1,1.875-.469,1.259,1.259,0,0,1,.82.7l-0.557.615A3.11,3.11,0,0,1,12,29.263H11.472v0.5a4.4,4.4,0,0,1,2.871.7,5.722,5.722,0,0,0,2.373,1.611,4.662,4.662,0,0,1,1.025.557,0.912,0.912,0,0,1,.439.732,5.025,5.025,0,0,1-.644,1.67l0.644,0.352q0.879-1.67,1.655-1.67a2.415,2.415,0,0,1,1.421.454,1.38,1.38,0,0,1,.645,1.172,5.156,5.156,0,0,1-.645,2.036l0.586,0.234A4.642,4.642,0,0,1,22.9,36a1.834,1.834,0,0,1,1.113-.322h1.729a0.541,0.541,0,0,1,.439.146l3.779,3.164a8.242,8.242,0,0,1,.82,2.051l-0.234,4.365a2.564,2.564,0,0,1-1.187,1.553,5.254,5.254,0,0,0-1.216,1.025,10.575,10.575,0,0,1-2.988.5H23.044a1.278,1.278,0,0,1-.923-0.352A5.7,5.7,0,0,1,21.2,46.49l-0.5.234a3.419,3.419,0,0,1,.557,1.582,2.341,2.341,0,0,1-.132.908,0.389,0.389,0,0,1-.293.293,0.275,0.275,0,0,1-.249-0.146l-0.117-.176a2.11,2.11,0,0,1-.132-0.234q-0.073-.146-0.278-0.688a15.426,15.426,0,0,0-1.963-2.651,1.611,1.611,0,0,1-.439-0.732q-0.176-5.127-2.637-5.391l-0.293-.147-0.967-.586a7.917,7.917,0,0,1-1.934-2.578l-0.234.117a6.875,6.875,0,0,1,1.084,2.988v0.557a2.124,2.124,0,0,1-.337,1.362,3.136,3.136,0,0,1-1.773.6l0.176,1.025a5.879,5.879,0,0,1,.967-0.059,1.6,1.6,0,0,1,1.04.322,1.759,1.759,0,0,1,.557.982,6.686,6.686,0,0,1,.19,1.113,11.438,11.438,0,0,1,0,1.157,1.839,1.839,0,0,1-.381,1.128,7.473,7.473,0,0,1-1.524,1.187l0.293,0.41a5.356,5.356,0,0,1,2.109-.908q0.586,0,.586.205l0.205,0.059a1.281,1.281,0,0,1,.176.527l0.117,2.52q0,0.762-1.875,1.084ZM14.9,28l0.234,0.439A0.832,0.832,0,0,1,14.9,28h0Z"/>
  <path fill="none" stroke="white" d="M37.215,57.642a5.839,5.839,0,0,1-1.047,1.8L36.409,59.6q1.154-1.638,1.584-1.638l1.88,0.054a0.7,0.7,0,0,1,.524.242,0.767,0.767,0,0,1,.228.537l0.054,1.96,0.4-.054-0.054-2.068a1.183,1.183,0,0,1,.054-0.376,0.808,0.808,0,0,0,.04-0.094,0.235,0.235,0,0,1,.081-0.094A0.684,0.684,0,0,1,41.3,58q0.027-.013.121-0.067c0.063-.036.112-0.063,0.148-0.081l5.183-.779h0.591a3.167,3.167,0,0,1,2.377.752,3.67,3.67,0,0,1,.712,2.551v1.477h0.7v-6.1a0.8,0.8,0,0,1,.3-0.591h0.054a1.193,1.193,0,0,1,.792-0.3,3.364,3.364,0,0,1,1.571,1.047l0.43-.483a2.8,2.8,0,0,1-1.262-1.719,16.716,16.716,0,0,1,.846-1.826,5.312,5.312,0,0,0,.685-2.336V46.578l0.94-1.316a1.677,1.677,0,0,0-.832-0.269H54.536V42.5a0.745,0.745,0,0,1,.054-0.322A11.959,11.959,0,0,0,54,43.234a10.545,10.545,0,0,0-.886,2.3,22.628,22.628,0,0,0-3.2,2.927,4.758,4.758,0,0,0-.591.953,4.14,4.14,0,0,1-.51.846l-2.014,1.5a0.547,0.547,0,0,1-.4.161,11.838,11.838,0,0,0-4.163-.564l1.128-1.1-0.269.269a2.625,2.625,0,0,1-.215.188,1.331,1.331,0,0,1-.215.148,1.979,1.979,0,0,1-.188.081,0.869,0.869,0,0,1-.3.04,1.285,1.285,0,0,1-.618-0.349c-0.09-.071-0.161-0.13-0.215-0.175s-0.139-.121-0.255-0.228-0.211-.2-0.282-0.282-0.179-.192-0.322-0.336A19.425,19.425,0,0,1,36.7,42.871,6.638,6.638,0,0,0,35.469,40.7q-0.081-.349-0.121-3.706T35.2,32.4a8.619,8.619,0,0,0,1.061-2.256q0.524-1.531.994-2.645a1.914,1.914,0,0,1,.967-1.235,1.46,1.46,0,0,0,.832-0.564q0.336-.443.618-0.832a0.79,0.79,0,0,1,.631-0.389h5.881a0.951,0.951,0,0,1,.792.591,29.142,29.142,0,0,0,3.5,3.491,3.7,3.7,0,0,1,.94,1.02,1.728,1.728,0,0,0,.671,1.182q0.483,0.4.752,3.276h0.215q-0.108-1.289-.107-1.826a2.793,2.793,0,0,1,.107-0.859,0.735,0.735,0,0,1,.51-0.457h0.054a1.831,1.831,0,0,1,.591-0.054,4.1,4.1,0,0,1,1.826,1.316l0.43-.376a3.164,3.164,0,0,1-1.316-2.068,1.644,1.644,0,0,1,.524-1.329,4.671,4.671,0,0,1,2.215-.658l-0.054-.564a11.451,11.451,0,0,1-1.423.161,3.977,3.977,0,0,1-.685-0.054,2.146,2.146,0,0,1-.9-0.645,5.562,5.562,0,0,1-.618-1.464,6.413,6.413,0,0,0-.7-1.611,3.515,3.515,0,0,1-.457-1.437q-0.51-2.981-1.638-2.981H50.159q-0.833,0-2.444-1.531l-0.269.269Q49,19.48,49,20.286V20.5a0.9,0.9,0,0,1-.242.618,0.944,0.944,0,0,1-.739.269,3.03,3.03,0,0,1-1.437-.618,1.65,1.65,0,0,1-.94-1.209,5.725,5.725,0,0,1,.376-1.692l-0.671-.215a4.783,4.783,0,0,1-.725,1.652,1.206,1.206,0,0,1-.913.336H39.2a1.387,1.387,0,0,1-.913-0.336,8.016,8.016,0,0,1-1.182-1.491l-0.43.268a5.172,5.172,0,0,1,.994,1.866,1.716,1.716,0,0,1-.242.846q-1.692-.161-1.692-1.4a15.532,15.532,0,0,1,.269-1.8l-0.322-.054a4.739,4.739,0,0,1-.752,2.068,1.161,1.161,0,0,1-.336.228q-0.2.094-3.357,3.317t-3.518,3.223a7.3,7.3,0,0,1-1.652-.43l-0.242.483a3.435,3.435,0,0,1,1.853,1.047,1.5,1.5,0,0,1,.081.564L27.6,30.733,27.547,32.29a51.72,51.72,0,0,0,1.531,12.891,23.88,23.88,0,0,0,4.834,9.8q0.054,0.081.148,0.215a0.439,0.439,0,0,1,.094.242l-0.054.886a0.794,0.794,0,0,1-.349.645,7.2,7.2,0,0,1-1.638.725l0.107,0.43a3.936,3.936,0,0,1,1.8-.483q1.181,0,1.182,2.417V60.7h0.322q0.054-3.223,1.316-3.223a0.515,0.515,0,0,1,.376.161h0Z"/>
</svg>
