<svg xmlns:svg="http://www.w3.org/2000/svg" xmlns="http://www.w3.org/2000/svg" version="1.1" viewBox="0 0 69.423729 69.423729" fill="white">
  <path d="M 5.4642697,69.22972 C 2.937352,68.617193 0.67078867,66.283301 0.14849569,63.756038 -0.06151648,62.739835 -0.0636998,6.7473896 0.14623169,5.6949153 0.6656828,3.0906899 3.0576671,0.68789238 5.667691,0.14849569 c 1.0150487,-0.20977353 57.073298,-0.20977353 58.088347,0 2.596857,0.53667555 4.982519,2.92233851 5.519195,5.51919531 0.210012,1.0162034 0.212196,57.008648 0.0023,58.061123 -0.519451,2.604225 -2.911436,5.007022 -5.521459,5.546419 C 62.647139,69.504402 6.4163222,69.460498 5.4642697,69.22972 Z M 63.728814,65.546421 c 0.748267,-0.348387 1.662419,-1.318955 1.914265,-2.032406 C 65.924265,62.717454 65.923027,6.7028922 65.641859,5.9058566 65.375513,5.151129 64.375551,4.130602 63.614572,3.8369314 63.014035,3.6051774 61.596007,3.5932203 34.711864,3.5932203 10.906503,3.5932203 6.3561955,3.6230285 5.9058566,3.7819226 5.151129,4.0482149 4.130602,5.0481774 3.8369314,5.8091572 3.6051774,6.4096943 3.5932203,7.8277223 3.5932203,34.711864 c 0,23.713506 0.030216,28.356786 0.1874295,28.802151 0.214948,0.608922 1.1062275,1.632098 1.6803036,1.928964 0.2146505,0.110999 0.6449341,0.252602 0.9561856,0.31467 0.3112515,0.06207 13.19642,0.103855 28.633709,0.09286 l 28.067796,-0.02 z M 24.542373,34.642136 V 21.962239 l 4.236258,0.03583 4.236257,0.03583 0.833047,5.627119 c 0.458176,3.094915 0.845881,5.657627 0.861566,5.694915 0.0351,0.08346 1.475585,-10.66002 1.486237,-11.084745 l 0.0077,-0.305085 h 4.338983 4.338983 V 34.644069 47.322035 H 41.96615 39.050896 l -0.01684,-7.084746 c -0.0249,-10.473878 0.0019,-10.445418 -1.182716,-1.254237 -0.547893,4.250847 -1.027389,7.866102 -1.065548,8.033898 -0.06811,0.299497 -0.106089,0.305085 -2.073878,0.305085 -1.967795,0 -2.005769,-0.0056 -2.073853,-0.305085 -0.03814,-0.167796 -0.548149,-3.752542 -1.133344,-7.966101 l -1.063989,-7.661017 -0.08389,3.118644 c -0.04614,1.715254 -0.0919,5.3 -0.101695,7.966101 l -0.0178,4.847458 h -2.847457 -2.847458 z" />
</svg>
