<?xml version="1.0" encoding="UTF-8" standalone="no"?>
<svg xmlns:svg="http://www.w3.org/2000/svg" xmlns="http://www.w3.org/2000/svg" viewBox="0 0 512 512" id="svg10" style="fill: rgba(81, 203, 238, 1)"><path d="m 147.5,510.8997 c -8.40488,-1.19968 -21.69889,-5.47233 -29.98397,-9.63676 -22.450262,-11.28443 -38.513609,-29.84504 -44.487959,-51.4042 -1.985177,-7.16375 -2.027992,-9.83582 -2.024333,-126.33864 0.0037,-116.9995 0.03747,-119.07543 1.99086,-122.27924 1.092917,-1.79253 3.453735,-4.15334 5.246262,-5.24626 3.219226,-1.96279 5.396193,-1.98712 177.75914,-1.98712 172.36295,0 174.53991,0.0243 177.75914,1.98712 1.79253,1.09292 4.15334,3.45373 5.24626,5.24626 1.95328,3.20363 1.98719,5.27881 1.99086,121.84918 0.004,113.98638 -0.0714,118.88367 -1.93082,126.15411 -3.41957,13.37039 -10.57832,25.18585 -21.70091,35.8172 -10.73343,10.25937 -21.36199,16.66428 -35.86453,21.61243 -15.43513,5.26633 -16.9245,5.32756 -126.5,5.20026 -55.825,-0.0649 -104.2,-0.50331 -107.5,-0.97434 z m 217,-41.27961 c 15.12568,-4.48649 26.67627,-12.92299 32.56581,-23.78591 L 400.5,439.5 V 337 234.5 H 256 111.5 V 337 439.5 l 2.78504,5.2859 c 7.31206,13.87803 22.77376,23.7332 41.07422,26.18039 3.37741,0.45164 50.46574,0.73393 104.64074,0.62732 91.18213,-0.17944 98.94576,-0.32606 104.5,-1.97352 z m -196,-27.57958 c -2.8047,-1.16775 -7.17315,-6.01219 -8.43638,-9.35561 -0.71871,-1.90221 -1.0565,-27.84477 -1.04166,-80 0.0208,-73.10964 0.12025,-77.40132 1.88347,-81.28383 2.76974,-6.09878 7.17726,-8.78386 15.15891,-9.23486 8.15572,-0.46084 13.59867,1.94532 17.08489,7.5527 L 195.5,273.5 v 79 c 0,77.89161 -0.0288,79.04906 -2.05407,82.4966 -3.4832,5.92941 -7.64133,8.01322 -15.84381,7.94001 -3.90617,-0.0349 -8.00212,-0.4381 -9.10212,-0.8961 z m 76.37505,-1.47945 C 237.64341,435.64703 238,440.2277 238,352.24675 v -78.95098 l 2.25,-3.30594 C 244.43302,263.84371 247.25863,262.5 256,262.5 c 8.74137,0 11.56698,1.34371 15.75,7.48983 l 2.25,3.30594 v 78.95098 c 0,87.98095 0.35659,83.40028 -6.87505,88.31431 C 264.10523,442.61302 262.34004,443 256,443 c -6.34004,0 -8.10523,-0.38698 -11.12495,-2.43894 z m 79.17902,0.26829 c -1.89527,-1.28488 -4.37027,-3.90962 -5.5,-5.83275 C 316.52882,431.54906 316.5,430.39161 316.5,352.5 v -79 l 2.35077,-3.78109 c 3.48622,-5.60738 8.92917,-8.01354 17.08489,-7.5527 7.98165,0.451 12.38917,3.13608 15.15891,9.23486 1.76329,3.88266 1.86266,8.1766 1.88347,81.38105 0.024,84.52645 0.27218,80.89139 -5.92001,86.71788 -2.92058,2.7481 -3.87555,3.02794 -11.37316,3.33275 -7.24249,0.29444 -8.58162,0.0638 -11.6308,-2.0034 z M 42.366714,167.08194 C 35.654856,162.98925 34.372297,157.0441 37.954843,146.63125 44.875748,126.51529 59.921592,110.24206 81.5,99.533819 97.022578,91.830774 105.61078,89.848008 126.66977,89.105434 136.11315,88.772445 144.03224,88.275 144.26777,88 c 0.23552,-0.275 1.38154,-4.65756 2.54671,-9.739022 9.08218,-39.608516 40.91254,-69.760987 81.06651,-76.7932041 11.33992,-1.98597436 44.8981,-1.98597436 56.23802,0 40.15397,7.0322171 71.98433,37.1846881 81.06651,76.7932041 1.16517,5.081462 2.31119,9.464022 2.54671,9.739022 0.23553,0.275 8.15462,0.772445 17.598,1.105434 12.81459,0.451863 19.32583,1.158936 25.66977,2.787547 10.94635,2.810137 28.7119,11.641259 36.97399,18.379489 19.85643,16.19413 33.30919,43.74133 25.93771,53.11265 -4.74667,6.03442 11.54797,5.61522 -218.11204,5.61114 -205.255545,-0.004 -210.374813,-0.0496 -213.432946,-1.91432 z M 323.98705,88.006932 c 1.60852,-0.860854 1.71984,-1.493257 0.83615,-4.75 -4.93194,-18.176183 -23.15382,-35.562578 -42.94755,-40.978394 -9.17905,-2.511502 -42.57225,-2.511502 -51.7513,0 -15.87131,4.342592 -31.08683,16.351274 -38.2919,30.221462 -5.00802,9.640757 -6.18509,14.190921 -4.00075,15.465624 2.2938,1.33858 133.65691,1.378433 136.15535,0.04131 z" /></svg>
